ffmpeg started on 2016-11-27 at 04:32:11
Report written to "Output/NVENCh264/results/ffmpeg/sintelllhq3000k.log"
Command line:
Tools/ffmpeg/ffmpeg -benchmark -y -i Input/y4m/sintel.y4m -c:v h264_nvenc -preset llhq -b:v 3000k -an Output/NVENCh264/encoded/sintelllhq3000k.mkv
ffmpeg version N-82227-gdb23fde Copyright (c) 2000-2016 the FFmpeg developers
  built with gcc 5.4.0 (Ubuntu 5.4.0-6ubuntu1~16.04.2) 20160609
  configuration: --prefix=/home/jaroslav/ffmpeg_build --pkg-config-flags=--static --extra-cflags=-I/home/jaroslav/ffmpeg_build/include --extra-ldflags=-L/home/jaroslav/ffmpeg_build/lib --bindir=/home/jaroslav/bin --enable-gpl --enable-libass --enable-libfdk-aac --enable-libfreetype --enable-libmp3lame --enable-libopus --enable-libtheora --enable-libvorbis --enable-libvpx --enable-libx264 --enable-libx265 --enable-nvenc --enable-libmfx --enable-libxvid --enable-libgsm --enable-libopencore-amrnb --enable-version3 --enable-nonfree
  libavutil      55. 35.100 / 55. 35.100
  libavcodec     57. 66.101 / 57. 66.101
  libavformat    57. 57.100 / 57. 57.100
  libavdevice    57.  2.100 / 57.  2.100
  libavfilter     6. 66.100 /  6. 66.100
  libswscale      4.  3.100 /  4.  3.100
  libswresample   2.  4.100 /  2.  4.100
  libpostproc    54.  2.100 / 54.  2.100
Input #0, yuv4mpegpipe, from 'Input/y4m/sintel.y4m':
  Duration: 00:00:20.83, start: 0.000000, bitrate: 2057307 kb/s
    Stream #0:0: Video: rawvideo (I420 / 0x30323449), yuv420p(progressive), 4096x1744, SAR 1:1 DAR 256:109, 24 fps, 24 tbr, 24 tbn, 24 tbc
[h264_nvenc @ 0x28261c0] The variable bitrate rate-control requires the 'qmin' and/or 'qmax' option set.
Output #0, matroska, to 'Output/NVENCh264/encoded/sintelllhq3000k.mkv':
  Metadata:
    encoder         : Lavf57.57.100
    Stream #0:0: Video: h264 (h264_nvenc) (Main) (H264 / 0x34363248), yuv420p, 4096x1744 [SAR 1:1 DAR 256:109], q=-1--1, 3000 kb/s, 24 fps, 1k tbn, 24 tbc
    Metadata:
      encoder         : Lavc57.66.101 h264_nvenc
    Side data:
      cpb: bitrate max/min/avg: 0/0/3000000 buffer size: 6000000 vbv_delay: -1
Stream mapping:
  Stream #0:0 -> #0:0 (rawvideo (native) -> h264 (h264_nvenc))
Press [q] to stop, [?] for help
frame=    3 fps=2.5 q=0.0 size=       0kB time=00:00:00.00 bitrate=N/A speed=   0x    frame=   21 fps= 12 q=0.0 size=       0kB time=00:00:00.00 bitrate=N/A speed=   0x    frame=   42 fps= 19 q=47.0 size=       1kB time=00:00:00.45 bitrate=  13.0kbits/s speed=0.204x    frame=   63 fps= 23 q=49.0 size=       1kB time=00:00:01.33 bitrate=   4.5kbits/s speed=0.484x    frame=   84 fps= 26 q=47.0 size=       1kB time=00:00:02.20 bitrate=   2.7kbits/s speed=0.677x    frame=  105 fps= 28 q=48.0 size=       1kB time=00:00:03.08 bitrate=   1.9kbits/s speed=0.816x    frame=  126 fps= 29 q=47.0 size=       1kB time=00:00:03.95 bitrate=   1.5kbits/s speed=0.923x    frame=  147 fps= 31 q=45.0 size=    1689kB time=00:00:04.83 bitrate=2863.0kbits/s speed=1.01x    frame=  168 fps= 32 q=46.0 size=    1689kB time=00:00:05.70 bitrate=2424.2kbits/s speed=1.07x    frame=  189 fps= 32 q=45.0 size=    1689kB time=00:00:06.58 bitrate=2102.0kbits/s speed=1.13x    frame=  194 fps= 30 q=44.0 size=    1689kB time=00:00:06.79 bitrate=2037.3kbits/s speed=1.04x    frame=  195 fps= 20 q=44.0 size=    1689kB time=00:00:06.83 bitrate=2025.1kbits/s speed=0.696x    frame=  196 fps= 18 q=43.0 size=    1689kB time=00:00:06.87 bitrate=2012.7kbits/s speed=0.616x    frame=  217 fps= 19 q=43.0 size=    1689kB time=00:00:07.75 bitrate=1785.5kbits/s speed=0.664x    frame=  238 fps= 20 q=44.0 size=    1689kB time=00:00:08.62 bitrate=1604.4kbits/s speed=0.708x    frame=  259 fps= 20 q=40.0 size=    1689kB time=00:00:09.50 bitrate=1456.6kbits/s speed=0.748x    frame=  280 fps= 21 q=39.0 size=    3536kB time=00:00:10.37 bitrate=2791.9kbits/s speed=0.785x    frame=  301 fps= 22 q=42.0 size=    3985kB time=00:00:11.25 bitrate=2901.9kbits/s speed=0.82x    frame=  322 fps= 23 q=41.0 size=    3985kB time=00:00:12.12 bitrate=2692.5kbits/s speed=0.851x    frame=  343 fps= 23 q=35.0 size=    3985kB time=00:00:13.00 bitrate=2511.3kbits/s speed=0.881x    frame=  364 fps= 24 q=36.0 size=    3985kB time=00:00:13.87 bitrate=2352.9kbits/s speed=0.909x    frame=  385 fps= 24 q=34.0 size=    3985kB time=00:00:14.75 bitrate=2213.3kbits/s speed=0.935x    frame=  406 fps= 25 q=38.0 size=    3985kB time=00:00:15.62 bitrate=2089.4kbits/s speed=0.96x    frame=  427 fps= 25 q=38.0 size=    5826kB time=00:00:16.50 bitrate=2892.4kbits/s speed=0.983x    frame=  448 fps= 26 q=36.0 size=    5826kB time=00:00:17.37 bitrate=2746.7kbits/s speed=   1x    frame=  469 fps= 26 q=38.0 size=    6333kB time=00:00:18.25 bitrate=2842.4kbits/s speed=1.02x    frame=  490 fps= 27 q=35.0 size=    6333kB time=00:00:19.12 bitrate=2712.4kbits/s speed=1.04x    frame=  500 fps= 27 q=37.0 Lsize=    7585kB time=00:00:20.79 bitrate=2988.2kbits/s speed=1.12x    
video:7580kB audio:0kB subtitle:0kB other streams:0kB global headers:0kB muxing overhead: 0.059005%
bench: utime=1.052s
bench: maxrss=1190516kB
